<svg width="50" height="50" viewBox="0 0 50 50" fill="none" xmlns="http://www.w3.org/2000/svg">
<g clip-path="url(#clip0)">
<path d="M48.8637 23.8358H3.87581L13.2961 14.4156C13.7417 13.9731 13.7442 13.2532 13.3017 12.8077C12.8592 12.3621 12.1393 12.3595 11.6938 12.802L0.330463 24.1654C-0.110154 24.6086 -0.110154 25.3245 0.330463 25.7676L11.6939 37.1311C12.1021 37.6077 12.8195 37.6633 13.2962 37.255C13.7728 36.8468 13.8284 36.1294 13.4201 35.6528C13.382 35.6084 13.3406 35.5668 13.2962 35.5289L3.87591 26.1086H48.8638C49.4914 26.1086 50.0001 25.5998 50.0001 24.9723C50.0001 24.3448 49.4912 23.8358 48.8637 23.8358Z" fill="black"/>
</g>
<defs>
<clipPath id="clip0">
<path d="M0 0H50V50H0V0Z" fill="white"/>
</clipPath>
</defs>
</svg>
