<svg width="50" height="50" viewBox="0 0 50 50" fill="none" xmlns="http://www.w3.org/2000/svg">
<path fill-rule="evenodd" clip-rule="evenodd" d="M35.1085 3.70938C31.309 3.70938 27.7567 5.14034 25 7.75997C22.2433 5.14034 18.6909 3.70938 14.8915 3.70938C6.68027 3.70938 0 10.5501 0 18.9585C0 23.8333 4.15459 29.9083 12.3485 37.0147C18.3394 42.2104 24.4145 46.0989 24.4751 46.1376C24.6352 46.2397 24.8176 46.2906 25 46.2906C25.1824 46.2906 25.3648 46.2396 25.525 46.1375C25.5856 46.0988 31.6607 42.2103 37.6516 37.0146C45.8454 29.9082 50 23.8332 50 18.9585C50 10.5501 43.3197 3.70938 35.1085 3.70938ZM36.3887 35.5245C31.5171 39.7515 26.586 43.0994 25 44.1477C23.4164 43.1013 18.4982 39.7626 13.6281 35.539C5.99023 28.9149 1.95312 23.1815 1.95312 18.9585C1.95312 11.627 7.75732 5.66251 14.8915 5.66251C18.478 5.66251 21.8131 7.13653 24.2822 9.81299C24.4671 10.0134 24.7273 10.1274 25 10.1274C25.2727 10.1274 25.5329 10.0134 25.7178 9.81299C28.187 7.13663 31.522 5.6626 35.1085 5.6626C42.2427 5.66251 48.0469 11.627 48.0469 18.9585C48.0469 23.1781 44.0155 28.9065 36.3887 35.5245ZM33.9237 9.11201L33.887 9.11836C33.3559 9.21269 33.0019 9.71963 33.0963 10.2507C33.1804 10.7239 33.5922 11.0565 34.0566 11.0565C34.1134 11.0565 34.1709 11.0516 34.2285 11.0413L34.2479 11.038C34.7798 10.9484 35.1384 10.4447 35.0488 9.91289C34.9593 9.38086 34.4551 9.02275 33.9237 9.11201ZM38.081 9.37568C39.9744 9.95625 41.6775 11.1831 42.8765 12.8303C44.1101 14.5249 44.7622 16.5445 44.7622 18.6709C44.7623 19.2103 44.3251 19.6476 43.7857 19.6476C43.2464 19.6476 42.8092 19.2103 42.8092 18.671C42.8092 15.2545 40.6295 12.2 37.5085 11.243C36.9928 11.0849 36.703 10.5387 36.8611 10.023C37.0192 9.50742 37.5653 9.21738 38.081 9.37568Z" fill="#232323"/>
</svg>
