<svg width="50" height="50" viewBox="0 0 50 50" fill="none" xmlns="http://www.w3.org/2000/svg">
<g clip-path="url(#clip0)">
<g clip-path="url(#clip1)">
<path d="M6.41989 14.6854H43.5801C46.5686 14.6854 49 12.254 49 9.26547C49 6.27695 46.5686 3.84558 43.5801 3.84558H6.41979C3.43136 3.84558 1 6.27695 1 9.26547C1 12.254 3.43136 14.6854 6.41989 14.6854ZM43.5801 5.75793C45.5142 5.75793 47.0876 7.33142 47.0876 9.26547C47.0876 11.1995 45.5142 12.773 43.5801 12.773H6.41979C4.48574 12.773 2.91225 11.1995 2.91225 9.26547C2.91225 7.33142 4.48583 5.75793 6.41989 5.75793H43.5801Z" fill="#232323"/>
<path d="M6.41989 30.4199H43.5801C46.5686 30.4199 49 27.9885 49 25C49 22.0115 46.5686 19.5801 43.5801 19.5801H6.41979C3.43136 19.5801 1 22.0115 1 25C1 27.9885 3.43136 30.4199 6.41989 30.4199ZM43.5801 21.4925C45.5142 21.4925 47.0876 23.0659 47.0876 25C47.0876 26.9341 45.5142 28.5075 43.5801 28.5075H6.41979C4.48583 28.5075 2.91235 26.9341 2.91235 25C2.91235 23.0659 4.48583 21.4925 6.41989 21.4925H43.5801Z" fill="#232323"/>
<path d="M6.41989 46.1544H43.5801C46.5686 46.1544 49 43.7231 49 40.7345C49 37.746 46.5686 35.3147 43.5801 35.3147H6.41979C3.43127 35.3147 0.999901 37.746 0.999901 40.7345C0.999996 43.7231 3.43136 46.1544 6.41989 46.1544ZM43.5801 37.227C45.5142 37.227 47.0876 38.8005 47.0876 40.7345C47.0876 42.6686 45.5142 44.2421 43.5801 44.2421H6.41979C4.48574 44.2421 2.91225 42.6686 2.91225 40.7345C2.91225 38.8005 4.48574 37.227 6.41979 37.227H43.5801Z" fill="#232323"/>
<path d="M26.953 10.2217H43.4686C43.9967 10.2217 44.4248 9.79357 44.4248 9.26548C44.4248 8.73738 43.9967 8.3093 43.4686 8.3093H26.953C26.4249 8.3093 25.9968 8.73738 25.9968 9.26548C25.9968 9.79357 26.4249 10.2217 26.953 10.2217Z" fill="#232323"/>
<path d="M22.4746 10.2217H22.4891C23.0172 10.2217 23.4453 9.79357 23.4453 9.26548C23.4453 8.73738 23.0172 8.3093 22.4891 8.3093H22.4746C21.9465 8.3093 21.5184 8.73738 21.5184 9.26548C21.5184 9.79357 21.9465 10.2217 22.4746 10.2217Z" fill="#232323"/>
</g>
</g>
<defs>
<clipPath id="clip0">
<path d="M0 0H50V50H0V0Z" fill="white"/>
</clipPath>
<clipPath id="clip1">
<rect width="48" height="48" transform="matrix(-1 0 0 1 49 1)" fill="white"/>
</clipPath>
</defs>
</svg>
