<svg width="50" height="50" viewBox="0 0 50 50" fill="none" xmlns="http://www.w3.org/2000/svg">
<g clip-path="url(#clip0)">
<path fill-rule="evenodd" clip-rule="evenodd" d="M36.2232 29.3186C36.0405 29.1354 35.7917 29.0324 35.5327 29.0324C35.532 29.0326 35.5294 29.0326 35.525 29.0326C35.4689 29.033 35.1254 29.0354 34.8423 29.3186L34.1522 30.0086L31.9084 27.7652C36.8599 20.8244 36.1068 11.2499 30.009 5.15244C23.1403 -1.7163 12.022 -1.71745 5.15248 5.15244C-1.71627 12.0208 -1.71741 23.1395 5.15248 30.009C11.235 36.0919 20.8057 36.8724 27.7649 31.9083L30.0087 34.1522L29.3186 34.8422C28.9375 35.2233 28.9371 35.8421 29.3186 36.2235L41.6645 48.5683C43.5722 50.4771 46.6602 50.4783 48.5683 48.5687C50.4772 46.6613 50.478 43.5729 48.5683 41.6648L36.2232 29.3186ZM31.3896 32.7712L29.2987 30.6804C29.5417 30.4626 29.7794 30.239 30.009 30.009C30.2391 29.7794 30.4626 29.5417 30.6804 29.2991L32.7713 31.3899L31.3896 32.7712ZM6.5334 28.6281C0.427591 22.5227 0.426828 12.6395 6.5334 6.53336C12.6388 0.427557 22.5219 0.426794 28.6281 6.53336C34.7202 12.6251 34.7511 22.5059 28.6281 28.6281C22.4361 34.8209 12.5557 34.6507 6.5334 28.6281ZM35.5327 31.3899L38.2942 34.1518L34.1518 38.2942L31.39 35.5327L35.5327 31.3899ZM47.1874 47.1877C46.043 48.3333 44.1909 48.3337 43.0458 47.1877L35.5327 39.6751L39.6751 35.5327L47.1878 43.0461C48.3329 44.1901 48.3341 46.0422 47.1874 47.1877ZM8.86157 17.6498C8.32256 17.6498 7.88501 18.087 7.88501 18.626C7.88501 19.165 8.32256 19.6026 8.86157 19.6026C9.40059 19.6026 9.83813 19.165 9.83813 18.626C9.83813 18.087 9.40059 17.6498 8.86157 17.6498ZM10.6758 10.6758C12.5183 8.83217 14.9704 7.8167 17.5804 7.8167C18.1198 7.8167 18.5569 8.25386 18.5569 8.79326C18.5569 9.33266 18.1198 9.76982 17.5804 9.76982C15.4922 9.76982 13.5307 10.582 12.0567 12.0564C11.2022 12.9112 10.5735 13.9198 10.1886 15.0547C10.0154 15.5644 9.46156 15.839 8.95 15.6654C8.43922 15.4923 8.16608 14.9376 8.33927 14.4272C8.82145 13.0058 9.60766 11.7439 10.6758 10.6758Z" fill="#232323"/>
</g>
<defs>
<clipPath id="clip0">
<path d="M0 0H50V50H0V0Z" fill="white"/>
</clipPath>
</defs>
</svg>
